<?xml version="1.0" standalone="no"?>
<!DOCTYPE svg PUBLIC "-//W3C//DTD SVG 20010904//EN"
 "http://www.w3.org/TR/2001/REC-SVG-20010904/DTD/svg10.dtd">
<svg version="1.0" xmlns="http://www.w3.org/2000/svg"
 width="500.000000pt" height="500.000000pt" viewBox="0 0 500.000000 500.000000"
 preserveAspectRatio="xMidYMid meet">

<g transform="translate(0.000000,500.000000) scale(0.100000,-0.100000)"
fill="#000000" stroke="none">
<path d="M2487 4034 c-4 -4 -7 -25 -7 -46 0 -31 3 -38 20 -38 11 0 20 6 20 14
0 9 7 12 20 9 11 -3 20 -9 20 -14 0 -22 28 -6 33 18 8 40 -2 53 -38 53 -18 0
-40 2 -47 5 -8 3 -17 2 -21 -1z m66 -31 c-7 -2 -19 -2 -25 0 -7 3 -2 5 12 5
14 0 19 -2 13 -5z"/>
<path d="M2334 4015 c3 -9 6 -28 6 -41 0 -15 6 -24 15 -24 8 0 15 4 15 8 0 5
17 13 38 18 27 7 37 14 37 29 0 17 -8 20 -59 23 -51 3 -58 1 -52 -13z m71 -15
c-3 -5 -13 -10 -21 -10 -8 0 -14 5 -14 10 0 6 9 10 21 10 11 0 17 -4 14 -10z"/>
<path d="M2632 3989 l3 -44 48 -3 c33 -2 47 0 42 7 -3 6 -21 12 -38 12 -30 2
-31 2 -4 6 33 5 36 20 5 26 -17 3 -14 5 10 6 33 1 46 21 13 21 -10 0 -33 3
-50 6 l-32 7 3 -44z"/>
<path d="M2167 3993 c-15 -16 -15 -18 0 -35 13 -14 13 -18 2 -18 -10 -1 -9 -4
4 -11 43 -25 109 20 71 48 -11 8 -13 13 -5 13 7 0 9 5 6 10 -10 16 -59 12 -78
-7z"/>
<path d="M2782 3999 c-24 -9 -30 -47 -10 -67 15 -15 84 -16 93 -2 4 6 -8 10
-29 10 -38 0 -55 15 -37 33 7 7 18 7 37 -2 31 -14 42 -8 25 13 -15 18 -52 25
-79 15z"/>
<path d="M2063 3977 c-18 -7 -33 -15 -34 -20 -2 -21 14 -67 24 -67 27 0 87 22
87 31 0 6 -15 8 -37 4 l-38 -6 30 15 30 14 -30 2 -30 2 28 10 c27 10 38 29 15
27 -7 0 -28 -6 -45 -12z"/>
<path d="M2902 3941 c-8 -33 -7 -41 6 -46 18 -7 16 -9 29 37 9 30 8 38 -4 42
-8 3 -16 6 -18 6 -1 0 -7 -18 -13 -39z"/>
<path d="M2982 3938 c-25 -25 -14 -58 23 -74 44 -18 75 -5 75 31 0 39 -71 70
-98 43z m66 -35 c5 -17 -26 -29 -40 -15 -6 6 -7 15 -3 22 9 14 37 9 43 -7z"/>
<path d="M1915 3928 c-40 -14 -38 -11 -21 -52 17 -40 30 -45 46 -16 8 15 17
18 41 13 29 -5 30 -5 23 23 -4 16 -9 32 -11 37 -6 10 -42 8 -78 -5z m45 -17
c0 -11 -31 -24 -39 -16 -3 3 1 10 9 15 19 12 30 12 30 1z"/>
<path d="M3114 3885 c-5 -12 1 -24 17 -37 l24 -19 -23 11 c-13 6 -26 9 -30 6
-9 -10 20 -34 50 -41 39 -10 50 20 17 47 l-24 19 23 -11 c29 -14 41 -5 21 15
-24 24 -68 30 -75 10z"/>
<path d="M1794 3876 c-36 -16 -48 -40 -34 -67 12 -21 41 -25 73 -8 40 21 47
47 21 73 -18 19 -20 19 -60 2z m36 -36 c0 -13 -7 -20 -20 -20 -19 0 -27 20
-13 33 13 14 33 6 33 -13z"/>
<path d="M2155 3851 c-77 -21 -187 -60 -245 -87 -205 -94 -409 -264 -536 -446
-41 -59 -79 -110 -83 -113 -5 -2 -58 -14 -117 -25 -229 -44 -448 -122 -608
-217 -96 -57 -209 -167 -251 -243 -27 -50 -30 -63 -30 -150 0 -84 3 -101 28
-150 27 -53 103 -150 94 -120 -32 109 -49 200 -43 233 11 60 57 103 137 129
62 20 73 28 113 78 75 98 216 193 388 264 111 46 217 80 225 72 3 -2 -4 -25
-15 -50 -18 -38 -62 -184 -62 -202 0 -3 4 -3 9 0 5 3 17 37 26 76 15 63 29 89
40 78 2 -2 -4 -37 -15 -78 -11 -41 -17 -76 -15 -79 8 -7 11 0 31 78 17 65 22
76 47 84 16 5 31 7 34 3 3 -3 -2 -34 -11 -70 -19 -76 -19 -79 -7 -72 5 3 17
37 26 76 l17 70 53 0 53 0 -13 -57 c-7 -32 -12 -60 -9 -62 7 -7 11 2 26 64
l14 60 73 3 c66 3 72 1 67 -15 -14 -47 -18 -96 -8 -89 5 3 13 29 17 56 l7 50
90 0 89 0 -7 -46 c-5 -34 -4 -45 5 -40 6 4 11 20 11 36 0 58 3 60 112 60 l101
0 -6 -35 c-3 -19 -2 -35 3 -35 5 0 10 15 12 33 l3 32 113 3 114 3 -7 -31 c-4
-19 -3 -30 4 -30 6 0 11 14 11 30 l0 30 115 0 115 0 0 -45 c0 -25 5 -45 10
-45 6 0 10 20 10 45 l0 45 115 0 115 0 0 -29 c0 -17 5 -33 11 -37 8 -5 10 4 7
30 l-4 37 110 -3 111 -3 3 -32 c2 -18 8 -33 13 -33 6 0 7 14 3 35 l-6 36 103
-3 104 -3 6 -42 c3 -24 9 -46 14 -50 4 -5 5 13 2 40 l-7 47 89 0 89 0 12 -72
c12 -71 29 -122 30 -88 0 8 -6 48 -14 88 l-14 73 72 -3 71 -3 14 -62 c8 -35
19 -63 24 -63 5 0 7 6 4 14 -3 7 -9 34 -12 60 -7 44 -6 46 17 46 17 0 27 -8
35 -27 l11 -28 1 28 c1 16 7 27 16 27 14 0 26 -33 41 -108 4 -18 11 -35 15
-38 12 -7 12 -3 -7 72 -9 36 -14 67 -12 69 3 3 18 2 35 -1 28 -6 31 -10 52
-100 13 -52 27 -96 32 -100 13 -8 12 1 -16 100 -14 49 -23 92 -21 94 12 11 25
-14 40 -76 17 -66 36 -111 36 -85 0 43 -51 195 -96 284 -13 26 -24 49 -24 52
0 10 102 27 173 28 l72 2 -85 8 c-47 4 -104 13 -128 20 -82 23 -120 88 -123
211 l-2 53 -11 -70 -11 -70 -32 45 c-50 71 -179 191 -285 264 -140 96 -301
169 -469 211 -135 34 -142 35 -336 34 -197 -1 -199 -1 -338 -38z m273 17 c-3
-7 -15 -14 -29 -16 -23 -2 -23 -2 -5 13 24 18 39 20 34 3z m62 -3 c0 -10 -10
-15 -26 -15 -22 0 -25 2 -14 15 7 8 19 15 26 15 8 0 14 -7 14 -15z m60 0 c11
-13 8 -15 -14 -15 -16 0 -26 5 -26 15 0 8 6 15 14 15 7 0 19 -7 26 -15z m56 0
c18 -15 18 -15 -5 -13 -14 2 -26 9 -29 16 -5 17 10 15 34 -3z m-417 -70 c-45
-36 -78 -50 -100 -43 -17 6 100 78 125 78 14 0 8 -9 -25 -35z m91 0 c-27 -28
-41 -35 -73 -35 l-40 0 44 34 c27 21 56 35 73 35 l30 1 -34 -35z m105 3 c-12
-30 -18 -33 -59 -36 -25 -2 -46 0 -46 4 0 5 12 21 27 36 19 19 37 28 59 28
l33 0 -14 -32z m105 -3 l0 -35 -50 0 c-27 0 -50 2 -50 5 0 4 7 19 15 35 13 25
22 30 50 30 33 0 35 -2 35 -35z m105 5 c8 -16 15 -31 15 -35 0 -3 -22 -5 -50
-5 l-50 0 0 35 c0 33 2 35 35 35 28 0 37 -5 50 -30z m106 -6 l34 -35 -53 3
c-50 3 -55 5 -67 36 l-14 32 33 0 c24 0 41 -9 67 -36z m86 1 l46 -35 -40 0
c-32 0 -46 7 -73 35 l-34 35 28 0 c16 0 46 -15 73 -35z m76 -1 c32 -20 57 -37
55 -39 -12 -11 -71 12 -104 40 -52 46 -24 45 49 -1z m-723 22 c0 -10 -105 -66
-123 -66 -15 1 0 12 43 35 62 32 80 39 80 31z m800 -31 c40 -21 57 -34 45 -35
-12 0 -45 16 -75 35 -70 44 -54 44 30 0z m-975 -35 c-3 -5 -12 -10 -18 -10 -7
0 -6 4 3 10 19 12 23 12 15 0z m395 -8 c0 -5 -7 -32 -15 -60 l-16 -52 -71 0
c-55 0 -68 3 -61 13 5 6 22 33 37 60 26 46 28 47 76 47 28 0 50 -4 50 -8z
m130 -52 l0 -60 -70 0 c-38 0 -70 4 -70 8 0 5 7 32 15 60 l16 52 54 0 55 0 0
-60z m145 8 c8 -28 15 -55 15 -60 0 -4 -31 -8 -70 -8 l-70 0 0 60 0 60 55 0
54 0 16 -52z m141 -10 l33 -58 -69 0 -69 0 -16 52 c-8 28 -15 56 -15 60 0 5
23 8 51 6 50 -3 51 -4 85 -60z m-673 29 c-82 -103 -75 -97 -128 -97 l-50 0 62
60 c52 51 66 60 98 60 l36 0 -18 -23z m127 17 c0 -3 -12 -28 -27 -55 l-28 -49
-58 0 c-65 0 -65 -1 -9 68 31 38 39 42 78 42 24 0 44 -3 44 -6z m662 -36 c56
-69 56 -68 -9 -68 l-58 0 -27 49 c-16 27 -28 52 -28 55 0 3 20 6 44 6 39 0 47
-4 78 -42z m121 -18 l62 -60 -47 0 c-50 0 -58 5 -120 83 l-30 37 37 0 c32 0
46 -9 98 -60z m-1053 -4 c-45 -44 -64 -56 -100 -61 -51 -8 -51 -10 33 62 44
37 71 52 92 53 l30 0 -55 -54z m1152 -2 c38 -31 67 -59 65 -61 -3 -2 -22 -1
-45 3 -31 5 -52 18 -93 60 -53 54 -53 54 -25 54 20 0 50 -17 98 -56z m-1257
-10 c-45 -38 -72 -54 -87 -52 -19 2 -12 11 47 55 95 70 125 69 40 -3z m1328 4
c60 -44 68 -54 50 -56 -16 -2 -43 14 -88 52 -84 71 -58 73 38 4z m-1343 38 c0
-8 -141 -109 -145 -104 -3 2 28 28 68 56 75 53 77 54 77 48z m1466 -104 c-5
-4 -116 77 -116 85 0 2 27 -15 60 -38 33 -24 58 -45 56 -47z m-986 1 c0 -9 -5
-45 -11 -80 l-11 -63 -84 0 c-46 0 -84 3 -84 8 0 9 38 110 51 134 14 26 139
27 139 1z m170 -63 l0 -80 -91 0 c-81 0 -90 2 -85 18 3 9 10 45 17 80 l12 62
73 0 74 0 0 -80z m179 18 c7 -35 14 -71 17 -80 5 -16 -4 -18 -85 -18 l-91 0 0
80 0 80 74 0 73 0 12 -62z m166 7 c14 -30 27 -66 31 -80 l6 -25 -84 0 -85 0
-11 64 c-19 100 -21 96 54 96 l65 0 24 -55z m-825 36 c0 -5 -17 -40 -39 -78
l-38 -68 -68 -3 -67 -3 51 73 c41 58 58 74 84 79 50 10 77 10 77 0z m150 2 c0
-4 -12 -38 -27 -75 l-26 -68 -74 0 c-40 0 -73 3 -73 6 0 3 17 37 38 75 l37 69
63 0 c34 0 62 -3 62 -7z m843 -62 c20 -38 37 -72 37 -75 0 -3 -33 -6 -73 -6
l-74 0 -26 68 c-15 37 -27 71 -27 75 0 4 28 7 63 7 l62 0 38 -69z m74 61 c13
-4 45 -38 73 -77 l51 -70 -62 -3 c-34 -2 -65 1 -69 5 -4 4 -26 41 -48 81 l-41
72 37 -1 c20 -1 47 -4 59 -7z m-1203 -14 c-4 -7 -27 -41 -51 -75 -40 -56 -48
-63 -88 -69 -24 -3 -48 -4 -53 -3 -6 2 19 39 54 82 61 73 67 77 105 77 29 0
38 -3 33 -12z m1390 -65 c36 -42 64 -78 62 -80 -2 -2 -27 -1 -55 3 -49 6 -53
10 -94 68 -64 91 -63 86 -18 86 37 0 44 -5 105 -77z m-1555 -8 c-44 -53 -68
-75 -85 -75 -12 0 -31 -3 -41 -7 -10 -4 15 30 56 75 60 67 79 82 103 82 l29 0
-62 -75z m1649 -2 c39 -43 70 -78 69 -79 -1 -1 -19 1 -39 3 -32 4 -46 16 -98
79 l-61 74 29 0 c25 0 43 -14 100 -77z m-1743 -7 c-57 -64 -105 -99 -105 -78
0 13 145 152 158 152 7 0 -17 -33 -53 -74z m1805 -1 c58 -58 70 -75 54 -75
-13 0 -46 28 -88 75 -37 41 -61 75 -54 75 7 0 47 -34 88 -75z m-1134 -117 c-4
-35 -9 -78 -13 -95 l-5 -33 -99 0 c-55 0 -99 1 -99 3 0 2 6 26 14 53 8 27 20
68 26 92 l11 42 86 0 86 0 -7 -62z m204 -33 l0 -95 -101 0 -102 0 7 65 c4 36
9 79 13 95 l6 30 88 0 89 0 0 -95z m204 63 c3 -18 9 -61 14 -95 l9 -63 -104 0
-103 0 0 95 0 95 90 0 89 0 5 -32z m190 15 c8 -29 46 -167 46 -170 0 -2 -44
-3 -99 -3 l-99 0 -11 75 c-18 124 -24 115 73 115 72 0 85 -3 90 -17z m-964 0
c0 -5 -14 -47 -32 -95 l-33 -88 -77 0 c-43 0 -78 2 -78 5 0 3 19 43 42 89 41
84 43 85 82 89 79 7 96 7 96 0z m180 0 c-1 -5 -11 -46 -24 -93 l-23 -85 -91
-3 -92 -3 26 68 c14 37 30 80 36 96 10 26 12 27 89 27 43 0 79 -3 79 -7z m988
-70 c17 -43 33 -86 37 -95 6 -16 -1 -18 -83 -18 l-90 0 -11 33 c-5 17 -15 52
-21 77 -6 25 -13 53 -16 63 -5 15 3 17 74 17 l80 0 30 -77z m93 71 c33 -6 39
-12 77 -90 23 -46 42 -87 42 -90 0 -2 -35 -4 -77 -2 l-77 3 -33 85 c-18 47
-33 88 -33 93 0 8 51 9 101 1z m-1421 -14 c0 -20 -81 -171 -94 -176 -7 -3 -36
-4 -64 -2 l-50 3 40 70 c71 123 63 115 118 115 28 0 50 -5 50 -10z m1603 -27
c13 -21 38 -64 56 -96 l33 -58 -63 3 -64 3 -42 85 c-23 47 -42 88 -43 93 0 4
22 7 50 7 47 0 51 -2 73 -37z m-1735 19 c-27 -63 -95 -165 -115 -173 -25 -9
-73 -12 -73 -4 0 7 90 147 108 168 15 17 87 25 80 9z m1873 -82 c31 -47 53
-89 49 -94 -5 -5 -25 -5 -44 -2 -32 6 -41 16 -86 92 -27 46 -50 87 -50 90 0 3
17 4 38 2 34 -3 41 -9 93 -88z m-1983 58 c-8 -13 -34 -53 -57 -89 -28 -46 -50
-69 -67 -73 -15 -4 -28 -5 -30 -3 -4 3 50 85 103 155 13 18 33 32 45 32 19 0
19 -2 6 -22z m2024 -15 c61 -93 59 -88 45 -107 -14 -19 -14 -19 -101 117 -18
27 -18 27 7 27 17 0 31 -11 49 -37z m-2143 -63 c-34 -50 -64 -89 -66 -86 -5 4
115 176 123 176 3 0 -23 -41 -57 -90z m2194 31 c28 -48 12 -37 -24 17 -18 26
-24 39 -13 30 10 -9 27 -30 37 -47z m-1543 -112 c0 -7 -27 -9 -87 -4 -49 4
-90 9 -92 11 -2 2 37 4 87 4 60 0 92 -4 92 -11z m214 -11 c-3 -13 -7 -24 -8
-25 -2 -2 -139 16 -173 23 -13 2 -23 9 -23 14 0 6 43 10 106 10 105 0 105 0
98 -22z m226 -83 l0 -105 -113 0 -114 0 4 58 c6 86 5 84 70 78 l58 -5 -55 12
c-49 11 -55 15 -58 40 l-3 27 105 0 106 0 0 -105z m235 28 c3 -43 9 -90 11
-105 l6 -28 -116 0 -116 0 0 105 0 105 104 0 104 0 7 -77z m228 -23 c10 -54
17 -104 17 -110 0 -16 -209 -14 -215 3 -2 6 -8 56 -12 110 l-9 97 102 0 101 0
16 -100z m203 15 c11 -44 24 -92 28 -107 l6 -28 -99 0 -100 0 -10 53 c-6 28
-13 70 -17 92 -3 22 -8 48 -11 58 -4 16 3 18 89 15 l93 -3 21 -80z m162 53 c2
-9 -5 -18 -15 -21 -15 -4 -14 -5 4 -6 17 -1 26 -14 44 -68 12 -38 24 -74 27
-81 3 -10 -15 -12 -83 -10 l-88 3 -27 103 -28 103 81 -3 c67 -2 82 -6 85 -20z
m144 4 c6 -6 -12 -12 -52 -17 -61 -7 -79 -1 -80 29 0 11 119 1 132 -12z m51 1
c-7 -2 -19 -2 -25 0 -7 3 -2 5 12 5 14 0 19 -2 13 -5z m-1684 -50 c0 -10 -8
-45 -17 -78 l-17 -60 -88 -3 c-101 -3 -94 -15 -57 93 l17 50 54 6 c102 11 109
10 108 -8z m207 0 c-2 -10 -7 -38 -11 -63 -12 -85 -5 -80 -116 -80 -91 0 -100
2 -95 18 3 9 10 37 16 62 6 25 13 53 16 63 5 15 18 17 100 17 86 0 95 -2 90
-17z m219 5 c4 -3 3 -37 -2 -75 l-8 -68 -107 -3 c-68 -2 -108 1 -108 7 0 6 5
43 12 82 l12 71 97 -4 c54 -1 100 -6 104 -10z m1207 3 c17 -6 30 -27 48 -77
14 -37 27 -72 28 -76 2 -4 -28 -8 -66 -8 l-70 0 -26 78 c-14 42 -26 80 -26 85
0 10 84 9 112 -2z m-1837 -83 l-23 -73 -72 -3 c-66 -3 -72 -1 -65 15 4 10 16
41 26 70 21 56 22 56 125 61 l32 2 -23 -72z m1935 45 c31 -25 43 -47 56 -98 6
-23 3 -25 -25 -25 -23 0 -34 6 -40 23 -5 12 -18 46 -30 75 -24 61 -13 69 39
25z m-2070 4 c0 -1 -10 -30 -23 -62 l-23 -60 -52 -3 c-29 -2 -52 -1 -52 1 0 5
41 101 46 106 8 8 104 26 104 18z m2260 -63 c17 -36 30 -68 30 -70 0 -10 -18
-3 -23 9 -3 6 -17 38 -31 70 -14 31 -21 57 -15 57 5 0 23 -30 39 -66z m-2405
-10 c-14 -31 -25 -58 -25 -60 0 -2 -13 -4 -30 -4 -35 0 -36 2 -7 60 20 40 38
53 79 59 4 1 -3 -24 -17 -55z m2364 19 c10 -21 22 -48 25 -60 7 -20 4 -23 -22
-23 -42 0 -66 56 -42 101 14 26 17 25 39 -18z m-2455 -45 c-15 -29 -29 -48
-31 -41 -6 18 43 110 54 99 2 -2 -8 -28 -23 -58z m2406 -18 c0 -5 -4 -10 -10
-10 -5 0 -10 5 -10 10 0 6 5 10 10 10 6 0 10 -4 10 -10z"/>
<path d="M1692 3823 c-10 -4 -10 -10 3 -29 18 -29 11 -47 -15 -39 -22 7 -37
-12 -21 -28 8 -8 20 -6 46 6 37 18 42 31 23 72 -12 26 -14 27 -36 18z"/>
<path d="M3914 3713 c-54 -60 -106 -111 -116 -115 -10 -4 -18 -13 -18 -21 0
-35 72 -322 83 -329 18 -12 302 -5 300 7 -2 6 -40 12 -85 15 l-83 5 133 29
c128 29 132 30 132 55 0 15 -4 42 -10 60 -6 23 -6 39 1 47 14 18 1 79 -22 100
-10 9 -19 22 -19 28 0 22 -21 86 -28 86 -4 0 -40 32 -81 70 -40 39 -77 70 -81
70 -5 0 -52 -48 -106 -107z m72 34 c-24 -23 -65 -64 -91 -92 -26 -27 -10 -7
36 46 46 53 87 95 91 93 3 -2 -13 -23 -36 -47z m90 1 l29 -33 -32 29 c-31 28
-38 36 -30 36 2 0 16 -15 33 -32z m-10 -22 c35 -31 37 -36 24 -50 -19 -20 -80
-33 -80 -17 0 23 -54 11 -76 -16 -12 -16 -25 -25 -28 -22 -6 6 104 138 115
139 3 0 23 -15 45 -34z m74 -35 c0 -6 -4 -13 -10 -16 -5 -3 -10 1 -10 9 0 9 5
16 10 16 6 0 10 -4 10 -9z m43 -43 c4 -12 5 -23 4 -24 -5 -4 -359 -84 -372
-84 -21 0 -19 38 3 44 9 3 78 19 152 35 74 17 149 35 165 40 43 13 42 13 48
-11z m-183 -4 c0 -2 -9 -4 -21 -4 -11 0 -18 4 -14 10 5 8 35 3 35 -6z m198
-65 c2 -11 -12 -20 -45 -30 -59 -17 -79 -55 -47 -90 16 -18 26 -20 70 -14 48
6 52 4 57 -17 4 -12 3 -25 -1 -29 -8 -6 -374 -91 -377 -87 -4 5 -45 202 -42
203 8 6 355 83 367 82 8 -1 16 -9 18 -18z m36 -61 c8 -40 2 -45 -60 -54 -47
-6 -53 -4 -59 15 -11 36 17 55 106 70 4 1 9 -13 13 -31z m11 -166 c-12 -10
-331 -82 -362 -82 -13 0 -23 4 -23 10 0 5 10 12 23 15 258 61 354 81 362 74 6
-6 6 -12 0 -17z"/>
<path d="M4132 3507 c-15 -17 1 -42 23 -33 18 6 17 37 -1 43 -6 2 -16 -2 -22
-10z"/>
<path d="M1545 3726 l-30 -24 21 -28 c11 -15 24 -29 30 -31 13 -4 80 54 71 63
-4 4 -15 0 -25 -9 -10 -10 -24 -17 -31 -17 -7 0 -3 9 10 20 27 22 19 26 -14 9
-21 -11 -21 -10 2 15 32 34 8 35 -34 2z"/>
<path d="M1455 3659 c-4 -6 -4 -25 -1 -44 l7 -34 -32 9 c-20 6 -38 6 -50 -1
-18 -9 -18 -11 8 -44 21 -26 30 -31 41 -23 9 8 10 14 2 22 -17 17 -11 24 23
22 30 -1 32 1 29 29 -4 26 -2 28 12 15 13 -10 20 -10 28 -2 9 9 6 18 -12 37
-25 27 -45 32 -55 14z"/>
<path d="M3880 3026 c207 -72 375 -169 474 -277 49 -52 65 -63 119 -78 87 -25
125 -47 147 -84 36 -58 35 -86 -10 -247 -48 -172 -73 -209 -148 -230 -37 -9
-55 -8 -123 10 l-80 21 -72 -45 c-87 -54 -246 -126 -343 -155 -39 -12 -74 -21
-78 -21 -3 0 4 21 18 48 26 52 80 245 74 264 -3 7 -17 -36 -33 -95 -16 -63
-33 -107 -40 -107 -10 0 -7 25 11 93 13 50 24 99 24 108 0 22 -39 31 -124 30
-55 -1 -71 2 -82 16 -12 17 -13 16 -14 -4 0 -22 -4 -23 -75 -23 l-75 0 0 31
c0 17 -4 28 -10 24 -5 -3 -10 -17 -10 -31 0 -24 -1 -24 -90 -24 l-90 0 0 45
c0 25 -4 45 -10 45 -5 0 -10 -20 -10 -45 l0 -45 -105 0 -105 0 0 55 c0 30 -4
55 -10 55 -5 0 -10 -25 -10 -55 l0 -55 -115 0 -115 0 0 66 c0 41 -4 63 -10 59
-5 -3 -10 -33 -10 -66 l0 -59 -120 0 -120 0 0 65 c0 37 -4 65 -10 65 -6 0 -10
-28 -10 -65 l0 -65 -120 0 -120 0 0 120 0 120 85 0 c50 0 85 4 85 10 0 6 -35
10 -84 10 -78 0 -84 2 -91 23 l-8 22 -4 -22 c-2 -13 -11 -23 -19 -23 -8 0 -14
-4 -14 -10 0 -5 7 -10 15 -10 13 0 15 -20 15 -120 l0 -120 -115 0 -115 0 0 60
c0 33 -4 60 -10 60 -6 0 -10 -27 -10 -60 l0 -60 -105 0 -105 0 0 45 c0 26 -5
45 -11 45 -7 0 -10 -17 -7 -45 l3 -45 -92 0 -93 0 0 30 c0 17 -4 30 -10 30 -5
0 -10 -13 -10 -30 l0 -30 -71 0 c-62 0 -71 2 -76 20 -3 11 -10 20 -15 20 -6 0
-7 -7 -4 -16 5 -13 -4 -15 -57 -14 -88 3 -147 -9 -147 -29 0 -9 11 -58 25
-110 14 -52 24 -95 22 -97 -11 -11 -27 25 -52 116 -16 57 -30 99 -33 92 -5
-16 45 -208 64 -244 18 -35 18 -38 -3 -39 -13 -1 -11 -3 5 -7 14 -5 30 -23 42
-50 l19 -43 -27 -10 c-15 -6 -72 -14 -127 -18 l-100 -7 103 -6 c186 -11 230
-53 242 -227 4 -53 8 -75 8 -50 1 25 5 67 8 92 l7 46 37 -47 c67 -83 202 -208
293 -271 128 -89 302 -165 471 -207 133 -32 149 -34 316 -34 167 0 183 2 318
35 262 64 463 175 650 359 77 75 119 127 237 294 1 1 38 9 81 16 264 47 524
142 692 253 79 53 169 148 205 217 29 55 32 69 32 151 0 79 -3 97 -29 150 -94
192 -393 366 -779 455 -126 29 -136 24 -27 -14z m-2611 -823 c29 -111 41 -162
41 -173 0 -7 -12 -10 -32 -8 -31 3 -31 4 -59 108 -16 58 -29 106 -29 108 0 1
16 2 35 2 31 0 35 -3 44 -37z m121 30 c1 -5 11 -56 24 -115 l24 -108 -29 0
c-30 0 -34 7 -42 75 -2 17 -5 7 -6 -22 -1 -56 -15 -69 -31 -30 -11 25 -50 179
-50 196 0 12 110 16 110 4z m187 -113 c12 -63 20 -116 18 -118 -2 -2 -34 0
-73 3 l-70 7 -21 100 c-30 139 -33 129 51 126 l73 -3 22 -115z m1847 83 c-4
-21 -14 -74 -23 -118 l-16 -80 -88 -3 -89 -3 6 28 c3 15 10 64 16 108 6 44 13
86 15 93 3 8 31 12 95 12 l91 0 -7 -37z m161 -20 c-7 -32 -18 -84 -25 -115
l-11 -58 -73 0 -73 0 19 103 c11 56 21 108 23 115 3 8 28 12 79 12 l74 0 -13
-57z m135 48 c0 -16 -48 -212 -53 -217 -3 -3 -27 -4 -54 -2 l-48 3 24 113 24
112 53 0 c30 0 54 -4 54 -9z m84 -18 c-4 -16 -17 -64 -29 -108 -21 -77 -22
-80 -53 -83 -18 -2 -32 0 -32 3 0 4 9 41 19 83 10 43 22 89 25 105 5 23 11 27
41 27 34 0 35 -1 29 -27z m-2035 -65 c7 -46 15 -98 18 -116 l5 -33 -88 3 -89
3 -16 80 c-8 44 -18 95 -22 113 l-6 32 93 0 94 0 11 -82z m225 10 c4 -40 9
-92 13 -116 l5 -43 -103 3 -104 3 -16 113 -15 112 107 0 106 0 7 -72z m246
-20 c0 -51 3 -103 6 -115 6 -23 6 -23 -109 -23 l-114 0 -7 93 c-4 50 -10 102
-13 115 -5 22 -5 22 116 22 l121 0 0 -92z m250 -28 l0 -120 -110 0 c-80 0
-112 3 -115 13 -2 6 -6 60 -10 120 l-6 107 120 0 121 0 0 -120z m255 8 c-4
-62 -9 -116 -12 -120 -2 -5 -53 -8 -114 -8 l-109 0 0 120 0 120 121 0 122 0
-8 -112z m251 70 c-3 -24 -8 -76 -12 -115 l-7 -73 -108 0 -109 0 0 84 c0 46 3
98 6 115 l7 31 114 0 115 0 -6 -42z m230 25 c-3 -10 -10 -62 -17 -115 l-12
-98 -105 0 c-103 0 -104 0 -99 23 3 12 9 64 13 115 l7 92 109 0 c99 0 109 -2
104 -17z m-1960 -270 c16 -37 31 -71 32 -75 2 -4 0 -8 -5 -8 -9 0 -73 123 -73
140 0 28 20 3 46 -57z m2499 17 c-14 -27 -29 -50 -34 -50 -5 0 0 23 12 50 11
28 27 50 34 50 9 0 6 -15 -12 -50z m-2431 -1 c7 -28 5 -42 -7 -59 -16 -23 -16
-23 -41 35 -15 32 -26 59 -26 62 0 2 15 3 33 1 28 -3 33 -8 41 -39z m26 31 c0
-5 -4 -10 -10 -10 -5 0 -10 5 -10 10 0 6 5 10 10 10 6 0 10 -4 10 -10z m112
-73 c15 -39 26 -73 24 -75 -7 -6 -60 25 -77 44 -16 19 -39 77 -39 98 0 8 12
11 33 8 30 -3 34 -9 59 -75z m2182 61 c-10 -36 -44 -98 -52 -98 -4 -1 -26 -5
-49 -9 -24 -5 -43 -7 -43 -5 0 2 12 33 26 69 l26 65 50 0 c47 0 49 -1 42 -22z
m86 18 c0 -2 -9 -24 -19 -49 -14 -32 -26 -46 -46 -51 -15 -4 -29 -5 -32 -2 -2
2 5 27 18 55 19 44 25 51 50 51 16 0 29 -2 29 -4z m-2109 -93 l28 -83 -32 0
c-59 0 -106 12 -112 29 -4 9 -18 44 -31 79 l-24 63 72 -3 71 -3 28 -82z m190
-26 l27 -108 -81 3 c-67 2 -82 6 -85 20 -2 9 5 18 15 21 14 4 14 5 -4 6 -19 1
-26 13 -43 72 -12 39 -24 78 -27 86 -4 11 10 13 83 11 l88 -3 27 -108z m1559
106 c0 -4 -10 -37 -22 -74 -19 -60 -25 -68 -51 -73 -39 -8 -137 -8 -137 0 0 7
29 123 35 142 5 13 175 18 175 5z m160 4 c0 -2 -11 -30 -24 -62 -25 -63 -33
-69 -113 -79 l-51 -6 19 62 c11 35 21 69 24 76 3 8 27 12 75 12 38 0 70 -1 70
-3z m-1526 -24 c3 -10 10 -47 16 -83 6 -36 13 -75 15 -87 5 -23 4 -23 -88 -23
l-92 0 -24 93 c-13 50 -26 98 -29 105 -3 9 20 12 96 12 87 0 101 -2 106 -17z
m240 -65 c4 -46 9 -96 12 -111 l6 -28 -104 3 -103 3 -12 65 c-6 36 -14 84 -18
108 l-6 42 109 0 110 0 6 -82z m236 -28 l0 -110 -104 0 -104 0 -9 103 c-5 56
-7 105 -5 110 2 4 52 7 113 7 l109 0 0 -110z m244 48 c-8 -92 -6 -89 -71 -84
l-58 5 58 -11 c53 -11 57 -13 57 -40 l0 -28 -105 0 -105 0 0 110 0 110 115 0
115 0 -6 -62z m236 51 c0 -5 -5 -42 -12 -81 l-11 -71 -99 6 c-55 3 -101 7
-103 9 -2 2 -1 36 2 76 l6 72 108 0 c70 0 109 -4 109 -11z m216 -6 c-3 -10
-10 -38 -16 -63 -6 -25 -13 -53 -16 -62 -5 -16 -18 -18 -100 -18 -93 0 -94 0
-90 23 3 12 10 48 16 80 l11 57 100 0 c91 0 100 -2 95 -17z m-1522 -168 c4
-12 -6 -15 -59 -15 -103 0 -93 25 11 29 29 1 44 -4 48 -14z m1186 0 c74 -10
91 -15 85 -25 -3 -6 -49 -10 -101 -10 l-94 0 0 26 c0 24 3 26 33 20 17 -3 52
-8 77 -11z m-1330 -5 c0 -5 -8 -10 -17 -10 -15 0 -16 2 -3 10 19 12 20 12 20
0z m1493 -17 c-13 -2 -33 -2 -45 0 -13 2 -3 4 22 4 25 0 35 -2 23 -4z m620 -6
c-77 -124 -140 -193 -158 -175 -2 2 23 45 55 96 50 77 64 92 85 92 19 0 24 -4
18 -13z m31 1 c-13 -23 -97 -143 -107 -153 -15 -15 0 11 55 93 27 39 51 72 54
72 3 0 2 -6 -2 -12z m-2084 -89 c29 -49 50 -93 47 -96 -4 -3 -22 -2 -41 1 -29
6 -41 17 -77 74 -23 37 -49 77 -57 90 -14 22 -14 22 31 22 l45 0 52 -91z
m1969 70 c-6 -12 -31 -52 -55 -90 -38 -58 -50 -69 -80 -75 -19 -3 -37 -4 -40
-1 -3 3 18 46 46 96 l52 91 44 0 c43 0 44 -1 33 -21z m-1826 -84 l47 -95 -29
0 c-75 0 -85 7 -139 101 l-51 89 62 0 62 0 48 -95z m107 85 c25 0 41 -31 88
-167 3 -10 -14 -13 -65 -13 l-70 0 -39 87 c-21 47 -41 91 -43 96 -2 6 16 8 50
4 30 -4 65 -7 79 -7z m1470 0 c0 -5 -19 -48 -42 -95 l-42 -85 -68 0 c-38 0
-68 1 -68 3 0 2 15 41 33 88 l33 84 44 6 c74 10 110 10 110 -1z m138 -12 c-8
-13 -31 -53 -51 -89 -37 -66 -38 -67 -88 -73 -28 -4 -54 -4 -57 -1 -3 3 14 46
38 95 l44 90 64 0 64 0 -14 -22z m-1956 -65 c26 -42 46 -79 44 -81 -13 -13
-49 16 -86 69 -34 49 -40 62 -30 74 7 8 15 15 19 15 3 -1 27 -35 53 -77z m589
10 c9 -35 20 -76 24 -93 l7 -30 -76 0 c-86 0 -78 -7 -125 115 l-30 76 91 -3
91 -3 18 -62z m200 34 c4 -15 11 -57 14 -92 l7 -65 -85 0 -85 0 -11 33 c-5 17
-15 52 -21 77 -6 25 -14 53 -16 63 -5 16 2 18 92 15 97 -3 98 -3 105 -31z
m654 3 c-4 -17 -15 -58 -24 -93 l-18 -62 -86 -3 c-99 -3 -94 -10 -77 98 15 96
8 90 115 90 l97 0 -7 -30z m180 -36 c-47 -126 -40 -119 -128 -122 -42 -2 -77
0 -77 2 0 6 38 151 45 174 3 8 31 12 95 12 l90 0 -25 -66z m-615 -34 l0 -90
-89 0 -88 0 -6 28 c-3 15 -9 55 -13 90 l-7 62 102 0 101 0 0 -90z m218 23
c-15 -123 -6 -113 -108 -113 l-90 0 0 90 0 90 103 0 104 0 -9 -67z m-1284 -13
c14 -22 26 -43 26 -47 0 -9 -59 70 -60 80 0 14 8 6 34 -33z m192 -164 c35 -39
59 -73 53 -75 -11 -3 -159 136 -159 150 0 22 49 -13 106 -75z m1874 76 c0 -13
-146 -152 -160 -152 -13 0 92 123 124 146 23 16 36 18 36 6z m-1857 -11 c32
-12 143 -145 124 -149 -26 -5 -52 14 -121 86 -56 58 -65 72 -48 72 11 0 32 -4
45 -9z m1731 -66 c-44 -48 -78 -77 -97 -81 -15 -3 -30 -4 -32 -2 -2 2 25 38
61 81 58 69 69 77 100 77 l35 0 -67 -75z m-1577 43 c38 -43 95 -129 90 -134
-3 -4 -23 -3 -45 1 -32 5 -48 18 -101 81 l-62 74 49 0 c38 0 53 -5 69 -22z
m1483 -52 c-53 -64 -66 -74 -102 -80 -22 -4 -43 -5 -45 -2 -3 2 20 39 51 80
l56 76 51 0 50 0 -61 -74z m-1297 -6 c20 -38 37 -72 37 -75 0 -3 -24 -5 -52
-5 l-53 0 -52 75 -52 75 67 0 67 0 38 -70z m90 62 l49 -7 28 -72 28 -73 -63 0
c-70 0 -66 -3 -119 93 l-37 67 33 -1 c18 0 55 -4 81 -7z m951 -59 c-20 -38
-41 -74 -47 -80 -10 -14 -127 -19 -127 -5 0 9 38 110 51 134 8 15 23 18 85 18
l76 0 -38 -67z m135 -8 l-53 -75 -53 0 c-29 0 -53 3 -53 6 0 3 12 26 26 52 56
98 48 92 120 92 l65 0 -52 -75z m-837 -10 l15 -75 -72 0 -73 0 -26 71 c-14 38
-26 72 -26 75 0 2 38 4 84 4 l83 0 15 -75z m178 0 l0 -75 -74 0 -73 0 -15 75
-15 75 88 0 89 0 0 -75z m196 58 c-2 -10 -10 -44 -16 -75 l-11 -58 -75 0 -74
0 0 75 0 75 91 0 c81 0 90 -2 85 -17z m184 10 c0 -4 -12 -38 -27 -75 l-26 -68
-69 0 c-44 0 -68 4 -68 11 0 7 5 40 12 75 l11 64 84 0 c46 0 83 -3 83 -7z
m-1095 -184 c59 -45 76 -65 23 -28 -79 55 -112 82 -95 76 9 -4 42 -25 72 -48z
m83 -12 c34 -28 62 -52 62 -54 0 -13 -36 5 -95 48 -91 66 -97 72 -60 63 17 -4
58 -30 93 -57z m1400 58 c-26 -26 -155 -115 -167 -115 -9 0 -11 3 -5 8 56 49
122 100 134 105 20 7 45 8 38 2z m51 2 c-50 -38 -149 -106 -149 -102 0 8 132
105 143 105 6 0 8 -1 6 -3z m-1354 -67 c54 -55 57 -60 34 -60 -15 0 -52 22
-98 60 l-74 60 39 0 c35 0 47 -7 99 -60z m1220 52 c-79 -70 -140 -112 -163
-112 -26 0 -24 4 35 60 53 52 66 60 99 60 22 0 34 -4 29 -8z m-1100 -59 c26
-32 42 -59 37 -61 -29 -9 -91 21 -137 68 l-49 50 51 0 c49 0 52 -1 98 -57z
m101 43 c1 0 16 -25 33 -53 l30 -53 -47 0 c-50 0 -43 -5 -126 98 l-19 24 64
-7 c35 -4 65 -8 65 -9z m763 -3 c-78 -100 -82 -103 -126 -103 -24 0 -43 3 -43
6 0 3 12 28 27 55 29 50 32 52 127 57 26 2 27 0 15 -15z m81 -37 c-44 -44 -64
-56 -100 -61 -50 -8 -52 -15 20 73 32 39 37 42 85 42 l50 0 -55 -54z m-674 -6
c8 -25 14 -48 14 -52 0 -5 -24 -8 -52 -8 l-53 0 -27 50 c-16 28 -28 52 -28 55
0 3 30 5 66 3 l67 -3 13 -45z m144 -5 l0 -55 -54 0 -54 0 -16 47 c-9 26 -16
50 -16 55 0 4 32 8 70 8 l70 0 0 -55z m155 23 c-17 -75 -20 -78 -80 -78 l-55
0 0 55 0 55 71 0 71 0 -7 -32z m155 26 c0 -3 -12 -28 -27 -55 -28 -49 -28 -49
-80 -49 -29 0 -53 1 -53 3 0 2 7 27 15 55 l16 52 64 0 c36 0 65 -3 65 -6z
m-700 -149 c72 -45 48 -45 -32 0 -37 20 -55 35 -43 35 11 0 45 -16 75 -35z
m82 -2 c65 -50 39 -55 -41 -7 -33 20 -61 38 -61 40 0 2 12 4 26 4 16 0 48 -16
76 -37z m738 33 c0 -9 -108 -66 -125 -66 -12 0 -3 11 26 35 26 21 55 35 72 35
15 0 27 -2 27 -4z m10 -31 c-84 -44 -100 -44 -30 -1 30 19 64 35 75 35 11 0
-9 -15 -45 -34z m-646 -10 l27 -35 -24 0 c-20 0 -107 54 -107 66 0 2 17 4 39
4 32 0 43 -6 65 -35z m101 5 c20 -39 20 -40 -19 -40 -27 0 -39 7 -60 35 l-27
35 45 0 c40 0 47 -3 61 -30z m105 -5 c0 -33 -2 -35 -35 -35 -28 0 -37 5 -50
30 -8 16 -15 31 -15 35 0 3 23 5 50 5 l50 0 0 -35z m120 30 c0 -4 -7 -19 -15
-35 -13 -25 -22 -30 -50 -30 -33 0 -35 2 -35 35 l0 35 50 0 c28 0 50 -2 50 -5z
m101 -13 c-18 -34 -49 -53 -78 -50 -29 3 -29 3 -16 36 12 29 17 32 58 32 41 0
45 -2 36 -18z m109 14 c0 -13 -88 -66 -108 -66 l-24 0 29 34 c22 28 35 35 66
35 20 1 37 -1 37 -3z m-395 -96 c8 -13 -15 -13 -35 0 -12 8 -11 10 7 10 12 0
25 -4 28 -10z m65 -5 c0 -8 -6 -15 -14 -15 -7 0 -19 7 -26 15 -11 13 -8 15 14
15 16 0 26 -5 26 -15z m60 0 c-7 -8 -19 -15 -26 -15 -8 0 -14 7 -14 15 0 10
10 15 26 15 22 0 25 -2 14 -15z m60 5 c-20 -13 -43 -13 -35 0 3 6 16 10 28 10
18 0 19 -2 7 -10z m60 6 c0 -2 -7 -7 -16 -10 -8 -3 -12 -2 -9 4 6 10 25 14 25
6z"/>
<path d="M2040 2893 c-41 -2 -77 -8 -80 -12 -7 -13 14 -458 22 -466 4 -4 43
-4 87 0 l80 7 3 82 3 81 101 6 c113 6 143 18 170 71 12 24 15 49 12 98 -6 73
-24 111 -64 128 -24 11 -152 13 -334 5z m218 -145 c-5 -15 -118 -24 -118 -10
0 17 14 22 68 22 38 0 53 -4 50 -12z"/>
<path d="M2519 2872 c-40 -36 -47 -79 -48 -290 l-1 -153 88 3 87 3 5 48 c7 65
24 64 30 -3 l5 -55 85 0 85 0 3 198 c1 128 -1 205 -8 218 -25 45 -67 59 -187
59 -110 0 -114 -1 -144 -28z m161 -153 c0 -28 -4 -39 -12 -37 -24 8 -22 78 2
78 5 0 10 -18 10 -41z"/>
<path d="M2910 2868 c0 -13 -9 -115 -20 -228 -11 -112 -16 -208 -12 -212 5 -5
45 -11 89 -15 l80 -6 9 79 9 79 34 3 c19 2 45 1 58 -3 25 -6 25 -7 18 -85 -8
-93 -13 -89 95 -92 l75 -3 8 78 c11 99 5 121 -33 137 -37 15 -34 33 6 40 36 6
54 40 54 105 0 52 -16 87 -49 105 -19 10 -302 40 -378 40 -38 0 -43 -3 -43
-22z m283 -145 c22 -13 -14 -24 -62 -17 -36 5 -51 11 -51 22 0 12 9 13 52 8
28 -4 56 -10 61 -13z"/>
<path d="M1820 2875 c-8 -2 -54 -9 -102 -15 l-88 -12 0 -55 c0 -66 -23 -70
-28 -4 -2 24 -9 44 -17 47 -18 7 -256 -23 -266 -33 -6 -8 48 -453 56 -462 6
-6 150 9 163 18 9 5 8 39 -6 145 -17 122 -15 163 5 142 4 -3 14 -65 24 -137
10 -72 21 -135 26 -139 4 -4 43 -3 86 2 l77 10 0 37 c0 20 -7 83 -15 141 -8
63 -10 109 -5 114 15 15 26 -29 40 -150 7 -62 16 -117 20 -124 6 -10 24 -10
86 -1 43 6 80 14 83 16 2 3 -9 108 -25 233 l-29 227 -35 2 c-19 0 -42 0 -50
-2z"/>
<path d="M3510 2823 c-39 -12 -63 -30 -76 -55 -17 -32 -76 -380 -66 -390 8 -7
115 -28 148 -28 19 0 23 7 29 50 5 35 11 50 22 50 13 0 14 -9 8 -55 -7 -62
-14 -57 100 -74 37 -5 62 -5 66 1 7 11 59 334 59 368 0 35 -35 89 -65 100 -22
8 -193 41 -205 39 -3 0 -12 -3 -20 -6z m104 -171 c-1 -7 -2 -21 -2 -32 -2 -21
-32 -29 -32 -7 0 28 13 58 24 54 6 -2 11 -9 10 -15z"/>
<path d="M1058 2756 c-114 -26 -149 -54 -150 -124 0 -53 50 -283 68 -310 9
-13 32 -31 52 -39 34 -14 45 -14 137 6 113 25 139 38 162 86 16 33 15 41 -12
172 -30 149 -43 183 -77 207 -27 19 -98 19 -180 2z m77 -226 c17 -86 15 -115
-4 -94 -8 8 -41 150 -41 175 0 5 6 9 14 9 9 0 19 -29 31 -90z"/>
<path d="M3866 2762 c-12 -20 -105 -447 -98 -453 9 -8 334 -80 339 -75 6 6 32
117 33 137 0 12 -20 20 -80 33 -44 10 -82 21 -84 24 -2 4 9 63 24 132 42 179
42 175 -27 189 -32 6 -68 14 -79 17 -12 3 -25 1 -28 -4z"/>
<path d="M651 2659 c-95 -27 -185 -56 -198 -64 -14 -9 -32 -33 -40 -53 -14
-35 -13 -42 22 -171 20 -75 43 -148 51 -163 16 -31 61 -58 96 -58 27 0 359 90
371 100 9 8 -19 129 -33 144 -4 4 -66 -8 -138 -28 -71 -20 -134 -36 -139 -36
-10 0 -43 101 -43 132 0 11 31 24 116 48 64 17 127 36 140 40 l23 9 -19 67
c-11 37 -23 71 -27 75 -5 3 -86 -15 -182 -42z"/>
<path d="M4293 2646 c-44 -20 -59 -47 -98 -184 -60 -207 -48 -240 103 -285
126 -38 182 -34 215 17 20 30 87 269 87 310 0 57 -38 92 -133 121 -114 34
-137 37 -174 21z m121 -154 c5 -8 -37 -162 -50 -183 -4 -7 -10 -7 -16 -1 -6 6
-2 36 12 83 12 41 24 82 26 92 6 18 19 23 28 9z"/>
<path d="M3105 2500 c3 -5 10 -10 16 -10 5 0 9 5 9 10 0 6 -7 10 -16 10 -8 0
-12 -4 -9 -10z"/>
<path d="M710 2131 l-55 -17 80 -33 c115 -48 206 -79 320 -107 135 -33 148
-30 40 10 -121 45 -190 77 -267 124 l-64 39 -54 -16z"/>
<path d="M1101 1493 c-1 -18 -10 -42 -20 -52 -21 -21 -78 -40 -126 -42 -19 -1
-22 -3 -10 -5 111 -22 126 -27 140 -47 8 -12 16 -35 16 -52 1 -20 3 -23 6 -10
16 72 37 89 129 104 35 6 40 9 19 10 -83 3 -131 34 -145 93 l-8 33 -1 -32z"/>
<path d="M3368 1327 c-33 -27 -34 -34 -8 -65 22 -27 45 -25 45 4 0 12 7 19 20
19 37 1 46 14 29 41 -20 30 -50 30 -86 1z m32 -22 c-7 -9 -15 -13 -18 -10 -3
2 1 11 8 20 7 9 15 13 18 10 3 -2 -1 -11 -8 -20z"/>
<path d="M3252 1248 c-12 -12 -17 -98 -6 -98 4 0 17 11 30 25 13 14 32 25 43
25 36 0 32 19 -8 40 -47 24 -44 23 -59 8z m33 -28 c3 -5 1 -10 -4 -10 -6 0
-11 5 -11 10 0 6 2 10 4 10 3 0 8 -4 11 -10z"/>
<path d="M3112 1174 c-47 -33 -13 -95 41 -75 14 6 28 15 32 21 3 5 11 7 17 4
6 -4 8 1 6 12 -5 27 -38 31 -45 4 -3 -12 -12 -20 -21 -18 -28 6 -24 28 7 39
17 6 31 15 31 20 0 15 -44 10 -68 -7z"/>
<path d="M1944 1123 c-9 -33 5 -55 41 -68 23 -8 30 -6 46 14 21 25 22 52 3 58
-6 2 -16 -8 -22 -22 -6 -14 -19 -25 -27 -25 -13 0 -15 7 -9 35 5 28 3 35 -10
35 -9 0 -19 -12 -22 -27z"/>
<path d="M3025 1118 c12 -37 11 -42 -7 -46 -12 -2 -19 5 -24 22 -6 24 -23 34
-37 20 -10 -10 14 -63 33 -69 20 -6 65 8 75 25 3 6 4 24 0 40 -5 21 -13 30
-26 30 -16 0 -19 -4 -14 -22z"/>
<path d="M2077 1103 c-3 -5 -8 -22 -11 -39 -5 -24 -3 -33 8 -37 11 -4 18 2 22
20 l7 26 15 -29 c29 -57 56 -58 70 -4 9 35 8 40 -8 40 -10 0 -21 -10 -25 -22
-6 -23 -7 -22 -19 5 -17 38 -48 58 -59 40z"/>
<path d="M2846 1082 c-7 -12 3 -70 13 -77 12 -7 91 17 91 27 0 5 -14 8 -32 6
-27 -2 -33 1 -38 21 -6 26 -24 38 -34 23z"/>
<path d="M2271 1046 c-12 -14 -3 -26 29 -40 8 -3 3 -4 -12 -1 -21 4 -26 2 -22
-9 9 -24 63 -31 83 -11 15 15 15 17 -3 31 -19 13 -19 14 -2 14 15 0 16 3 6 15
-16 19 -64 20 -79 1z"/>
<path d="M2678 1049 c-21 -12 -24 -49 -6 -67 15 -15 53 -16 79 -2 21 12 25 50
7 68 -15 15 -57 15 -80 1z m62 -28 c0 -14 -23 -29 -36 -24 -17 6 -18 30 -1 36
14 5 37 -2 37 -12z"/>
<path d="M2408 1039 c-24 -13 -23 -56 1 -69 29 -15 67 -12 85 6 21 20 20 30
-4 54 -22 22 -55 25 -82 9z m62 -33 c0 -8 -5 -18 -10 -21 -13 -8 -42 14 -34
26 9 15 44 10 44 -5z"/>
<path d="M2553 1043 c-8 -3 -13 -22 -13 -44 l0 -40 45 3 c47 3 59 22 15 22
-20 1 -26 7 -30 32 -3 19 -10 29 -17 27z"/>
</g>
</svg>
